<?xml version="1.0" encoding="UTF-8"?>
<svg version="1.1" xmlns="http://www.w3.org/2000/svg" width="1536" height="1024" viewBox="0 0 1536 1024">
<path d="M0 0 C0.91167419 -0.00538554 1.82334838 -0.01077108 2.76264906 -0.01631981 C5.80646371 -0.03058599 8.84984267 -0.02349893 11.89367676 -0.01637268 C14.08037159 -0.02207689 16.26706345 -0.02904134 18.45375061 -0.03717041 C24.38547807 -0.05510988 30.31705766 -0.05393207 36.24880409 -0.04822803 C41.20176557 -0.04513776 46.15469858 -0.05122673 51.107656 -0.05726677 C63.45919247 -0.07211538 75.81064808 -0.06849625 88.16218442 -0.05640347 C98.21483028 -0.04708702 108.26732319 -0.05644326 118.31994629 -0.07887268 C130.00369011 -0.10484606 141.6873303 -0.11731386 153.37110376 -0.11068493 C159.55230186 -0.10731274 165.73335735 -0.10974821 171.91453552 -0.12693596 C177.72585731 -0.14239024 183.5368492 -0.13846609 189.34815788 -0.11963081 C191.48024876 -0.11594098 193.612364 -0.11906484 195.74443245 -0.1295166 C198.65625604 -0.14270065 201.56698332 -0.13120158 204.47875977 -0.11352539 C205.32127651 -0.1231304 206.16379325 -0.1327354 207.0318408 -0.14263147 C212.73065033 -0.07151179 216.10967727 0.99040078 220.73937988 4.38768005 C224.57092909 8.70938697 224.1689631 13.38725729 224.14051819 18.87440491 C224.14731486 19.83463416 224.15411153 20.79486342 224.16111416 21.78419054 C224.18011721 25.00450649 224.17764725 28.22444311 224.1751709 31.44480896 C224.18414667 33.75279735 224.19435449 36.06078122 224.20570374 38.36875916 C224.23223124 44.6417529 224.23923851 50.91462391 224.24115109 57.18766832 C224.24399937 62.4259675 224.25503583 67.66423808 224.26566738 72.90252626 C224.28870948 84.55898951 224.297673 96.21539294 224.29565132 107.87187715 C224.29553146 108.57109113 224.29541159 109.27030511 224.29528809 109.9907074 C224.29516544 110.69077956 224.2950428 111.39085173 224.29491644 112.1121382 C224.29369822 123.44680522 224.32237718 134.7811727 224.36470319 146.11575313 C224.40786036 157.76528839 224.4279614 169.41466408 224.42592186 181.06428087 C224.42515768 187.60006954 224.43366749 194.13551949 224.46545601 200.67123795 C224.49455618 206.82244504 224.49469843 212.97299105 224.47290611 219.1242218 C224.46977526 221.37719567 224.47681781 223.63021109 224.49498749 225.88311386 C224.59787367 239.52829202 224.24149256 249.37168611 214.66906738 259.90330505 C213.66499653 260.83033722 212.64691685 261.74246258 211.61437988 262.63768005 C211.10262207 263.12107849 210.59086426 263.60447693 210.06359863 264.1025238 C206.40053497 267.38892283 206.40053497 267.38892283 203.66125488 267.3837738 C201.31026613 266.16527354 199.24672489 264.77339225 197.11437988 263.20018005 C169.78715014 243.70332873 138.42630509 234.23254525 104.98571777 234.14744568 C102.70595912 234.13780305 100.42712884 234.10672745 98.14758301 234.07518005 C88.00367331 234.00232123 78.62689656 235.16227059 68.73937988 237.38768005 C67.90092529 237.56621521 67.0624707 237.74475037 66.1986084 237.92869568 C44.48578172 242.67332187 23.49461027 252.4331171 6.06359863 266.26268005 C3.73937988 267.38768005 3.73937988 267.38768005 1.32141113 266.9072113 C-1.91649158 265.00169821 -4.55987049 262.65597253 -7.26062012 260.07518005 C-7.76851074 259.60144958 -8.27640137 259.12771912 -8.79968262 258.63963318 C-9.81181886 257.69107986 -10.8171285 256.73518718 -11.81530762 255.7719574 C-13.16720171 254.47715343 -14.55652179 253.22174526 -15.94812012 251.9697113 C-21.21161144 246.09273873 -21.70116605 240.38942563 -21.6550293 232.83007812 C-21.6611204 231.88644108 -21.6672115 230.94280404 -21.67348719 229.97057194 C-21.69009434 226.81855029 -21.68534458 223.66693362 -21.68054199 220.51487732 C-21.68788357 218.25098756 -21.69647006 215.98710155 -21.70620728 213.72322083 C-21.72842103 207.58069894 -21.73135406 201.43831121 -21.72945976 195.29575467 C-21.72934007 190.16642787 -21.73790362 185.03712951 -21.74623728 179.90781063 C-21.76656979 167.11522098 -21.76762163 154.32272991 -21.76043016 141.53013354 C-21.75485425 130.429629 -21.77568502 119.32935522 -21.80879062 108.22890461 C-21.84255106 96.82000734 -21.85721883 85.41126468 -21.8530736 74.00230831 C-21.85100552 67.60138898 -21.85649506 61.20069956 -21.88096619 54.79982185 C-21.90321764 48.78079548 -21.90136824 42.76224979 -21.88103867 36.74322128 C-21.87762599 34.53575582 -21.88272871 32.32825809 -21.89702225 30.12083626 C-21.91520681 27.10408567 -21.90247071 24.08896716 -21.88208008 21.07226562 C-21.89459793 20.20153414 -21.90711577 19.33080265 -21.92001295 18.43368536 C-21.8321833 12.36073573 -20.45339833 7.90697136 -16.26062012 3.38768005 C-10.92509731 0.12772111 -6.06300958 -0.04325014 0 0 Z " fill="#3ABEF1" transform="translate(375.2606201171875,327.61231994628906)"/>
<path d="M0 0 C0.91167419 -0.00538554 1.82334838 -0.01077108 2.76264906 -0.01631981 C5.80646371 -0.03058599 8.84984267 -0.02349893 11.89367676 -0.01637268 C14.08037159 -0.02207689 16.26706345 -0.02904134 18.45375061 -0.03717041 C24.38547807 -0.05510988 30.31705766 -0.05393207 36.24880409 -0.04822803 C41.20176557 -0.04513776 46.15469858 -0.05122673 51.107656 -0.05726677 C63.45919247 -0.07211538 75.81064808 -0.06849625 88.16218442 -0.05640347 C98.21483028 -0.04708702 108.26732319 -0.05644326 118.31994629 -0.07887268 C130.00369011 -0.10484606 141.6873303 -0.11731386 153.37110376 -0.11068493 C159.55230186 -0.10731274 165.73335735 -0.10974821 171.91453552 -0.12693596 C177.72585731 -0.14239024 183.5368492 -0.13846609 189.34815788 -0.11963081 C191.48024876 -0.11594098 193.612364 -0.11906484 195.74443245 -0.1295166 C198.65625604 -0.14270065 201.56698332 -0.13120158 204.47875977 -0.11352539 C205.32127651 -0.1231304 206.16379325 -0.1327354 207.0318408 -0.14263147 C212.7316404 -0.07149944 216.03455355 1.13540398 220.73937988 4.38768005 C224.66494488 8.76156488 224.14479881 13.65712532 224.07995605 19.22679138 C224.08039413 20.21263214 224.08083221 21.1984729 224.08128357 22.21418762 C224.07919689 25.4662317 224.05587103 28.7177575 224.03234863 31.9697113 C224.02675226 34.22700723 224.02248236 36.4843068 224.01948547 38.74160767 C224.00804 44.6780964 223.97857511 50.61436438 223.94537354 56.55076599 C223.91466641 62.61030593 223.90097874 68.66988159 223.88586426 74.72947693 C223.85370535 86.61564154 223.80251236 98.50164243 223.73937988 110.38768005 C223.40937988 110.38768005 223.07937988 110.38768005 222.73937988 110.38768005 C222.40937988 103.78768005 222.07937988 97.18768005 221.73937988 90.38768005 C220.74937988 90.71768005 219.75937988 91.04768005 218.73937988 91.38768005 C218.73937988 92.04768005 218.73937988 92.70768005 218.73937988 93.38768005 C211.14937988 93.38768005 203.55937988 93.38768005 195.73937988 93.38768005 C195.40937988 94.37768005 195.07937988 95.36768005 194.73937988 96.38768005 C194.18250488 95.62584412 193.62562988 94.86400818 193.05187988 94.0790863 C180.99195534 77.76151948 167.85247578 65.68899957 149.73937988 56.38768005 C148.8589502 55.91717224 147.97852051 55.44666443 147.07141113 54.9618988 C121.78019633 42.89533694 89.89755025 43.58261478 63.86682129 52.58982849 C37.25900698 62.56852222 16.36080489 81.92153111 3.70568848 107.24949646 C0.94409388 113.3601699 -0.75953762 119.86895104 -2.26062012 126.38768005 C-2.53664063 127.53961853 -2.53664063 127.53961853 -2.8182373 128.71482849 C-8.38192073 153.71669286 -2.70249639 180.1979109 10.43078613 201.88768005 C15.94253432 210.52863205 22.86045907 217.87900634 30.73937988 224.38768005 C31.06937988 225.37768005 31.39937988 226.36768005 31.73937988 227.38768005 C31.23712891 227.64347839 30.73487793 227.89927673 30.21740723 228.16282654 C15.42397042 235.73152244 1.48820518 243.60699138 -11.26062012 254.38768005 C-14.86468976 253.18831251 -16.77054486 252.37871816 -18.51062012 248.95018005 C-21.17047061 243.5354844 -21.41118603 239.236697 -21.41452026 233.31109619 C-21.41890252 232.37087685 -21.42328477 231.4306575 -21.42779982 230.46194667 C-21.44120104 227.29762208 -21.44736967 224.13332534 -21.45349121 220.96897888 C-21.46139112 218.7056821 -21.46966001 216.44238659 -21.47827148 214.17909241 C-21.50450406 206.73431097 -21.51980021 199.28952386 -21.53405762 191.8447113 C-21.53941676 189.28331181 -21.54479427 186.72191235 -21.55018997 184.16051292 C-21.57182036 173.50694744 -21.59070886 162.85338484 -21.60181236 152.19980335 C-21.604742 149.43552458 -21.60770367 146.67124585 -21.61071777 143.90696716 C-21.61146382 143.21993014 -21.61220987 142.53289311 -21.61297853 141.82503679 C-21.62562893 130.69842852 -21.65884832 119.57198017 -21.70051961 108.44544665 C-21.74296427 97.01861582 -21.76610282 85.59190624 -21.77173293 74.16498965 C-21.77538869 67.75057192 -21.78743445 61.33642528 -21.81983566 54.9220829 C-21.84988521 48.88672795 -21.8562389 42.85180858 -21.8444519 36.81639481 C-21.84423091 34.60246979 -21.85255692 32.38852474 -21.87010574 30.17466927 C-21.8927823 27.14898254 -21.8845086 24.12487722 -21.86862183 21.09918213 C-21.88250391 20.22572216 -21.896386 19.3522622 -21.91068876 18.45233375 C-21.83214346 12.36940286 -20.46293659 7.91322782 -16.26062012 3.38768005 C-10.92509731 0.12772111 -6.06300958 -0.04325014 0 0 Z " fill="#05539B" transform="translate(375.2606201171875,327.61231994628906)"/>
<path d="M0 0 C16.51171617 13.72509194 30.39589214 33.00616991 32.50097656 54.93994141 C32.80437231 59.42196477 32.85090241 63.89428526 32.85400391 68.38525391 C32.86625 69.31853516 32.87849609 70.25181641 32.89111328 71.21337891 C32.92974307 89.65266616 24.72434265 110.12884525 11.74462891 123.27197266 C9.53300427 125.521012 7.61964393 127.91074181 5.66650391 130.38525391 C1.04095536 135.33351514 1.04095536 135.33351514 -2.72021484 135.47509766 C-4.96501574 135.22489222 -7.13051486 134.87970081 -9.33349609 134.38525391 C-5.90688261 130.88374176 -2.35140906 127.65845219 1.35400391 124.44775391 C14.14206176 112.90702172 21.44594914 98.6492899 26.66650391 82.38525391 C20.85140073 82.75813075 17.87839232 85.14809468 13.60400391 88.76025391 C3.22563589 97.3400027 -4.67893796 100.39373827 -18.33349609 99.38525391 C-30.5023392 97.40968456 -40.61918513 90.98221765 -50.61010742 84.14672852 C-64.4682383 74.78082493 -78.37488604 69.21011975 -95.33349609 71.38525391 C-100.92144729 72.68627045 -106.12283104 75.03148371 -111.33349609 77.38525391 C-113.50479537 78.34678014 -115.67732093 79.30544277 -117.85083008 80.26196289 C-119.21580185 80.86800214 -120.57637109 81.48409741 -121.93139648 82.11206055 C-125.72843064 83.84058695 -129.18917358 84.89431109 -133.33349609 85.38525391 C-126.99471358 103.50248335 -119.12230858 117.94586172 -102.44848633 128.5690918 C-101.04861457 129.46520347 -99.68673845 130.42016727 -98.33349609 131.38525391 C-98.33349609 132.04525391 -98.33349609 132.70525391 -98.33349609 133.38525391 C-104.99552581 135.88351505 -104.99552581 135.88351505 -108.39990234 134.61572266 C-110.49974577 133.32129863 -112.40842787 131.92760479 -114.33349609 130.38525391 C-115.01283203 129.85544922 -115.69216797 129.32564453 -116.39208984 128.77978516 C-119.86648503 125.94853757 -119.86648503 125.94853757 -121.33349609 124.38525391 C-121.33349609 123.72525391 -121.33349609 123.06525391 -121.33349609 122.38525391 C-121.99349609 122.38525391 -122.65349609 122.38525391 -123.33349609 122.38525391 C-140.6030651 101.61125681 -146.6659249 79.15345311 -144.33349609 52.38525391 C-143.45475169 46.70270674 -141.65775174 41.65004511 -139.33349609 36.38525391 C-139.07117188 35.77407715 -138.80884766 35.16290039 -138.53857422 34.53320312 C-134.92547097 26.23476274 -130.44127456 19.07424 -124.33349609 12.38525391 C-123.8773291 11.87607422 -123.42116211 11.36689453 -122.95117188 10.84228516 C-111.23147152 -2.1035826 -97.78760606 -10.01028942 -81.33349609 -15.61474609 C-80.35896484 -15.95505859 -79.38443359 -16.29537109 -78.38037109 -16.64599609 C-51.62581931 -24.37190944 -21.56076528 -16.93731759 0 0 Z " fill="#0A579E" transform="translate(534.33349609375,412.61474609375)"/>
<path d="M0 0 C31.61596821 -1.7381082 59.4712927 9.09613587 82.78857422 29.97802734 C88.51487104 35.31038981 95.14585211 41.77370974 98.06982422 49.11474609 C98.06982422 50.10474609 98.06982422 51.09474609 98.06982422 52.11474609 C98.72982422 52.11474609 99.38982422 52.11474609 100.06982422 52.11474609 C107.77853462 67.3982687 113.02635308 81.923514 114.71044922 99.01708984 C114.88033817 102.02007254 114.88033817 102.02007254 116.06982422 104.11474609 C116.03154569 106.9650243 115.92944419 109.77205488 115.75732422 112.61474609 C115.68348511 113.84052368 115.68348511 113.84052368 115.6081543 115.09106445 C115.03541248 123.70787519 113.80947799 131.08929604 110.05810547 138.91943359 C109.10702532 141.03210965 108.45594268 143.07788349 107.81982422 145.30224609 C104.10088687 156.77896674 96.42369897 166.74882855 89.06982422 176.11474609 C88.36019531 177.16082031 88.36019531 177.16082031 87.63623047 178.22802734 C86.44482422 179.92724609 86.44482422 179.92724609 84.06982422 182.11474609 C77.19389969 182.54449138 70.32635269 178.66439905 64.06982422 176.11474609 C67.21275659 171.78259606 70.43578791 167.69239292 74.02124023 163.71508789 C91.98285798 143.52328472 96.28314293 119.60780841 94.86669922 93.34912109 C92.870085 76.07406765 82.81119149 60.39738207 71.06982422 48.11474609 C70.25771484 47.19048828 70.25771484 47.19048828 69.42919922 46.24755859 C55.76749685 31.27488479 33.88855293 22.71659855 13.98779297 21.73193359 C-11.630565 21.01431619 -35.31820284 28.14213574 -54.29101562 45.95800781 C-69.55696579 60.84853231 -80.02295788 79.97085078 -80.31103516 101.65649414 C-80.27519821 123.19001716 -75.95340011 141.78070311 -61.39892578 158.29443359 C-59.93017578 160.11474609 -59.93017578 160.11474609 -59.93017578 162.11474609 C-59.27017578 162.11474609 -58.61017578 162.11474609 -57.93017578 162.11474609 C-57.37330078 162.83662109 -56.81642578 163.55849609 -56.24267578 164.30224609 C-53.85299766 167.20861138 -51.55452235 168.90263629 -48.41845703 170.90380859 C-46.93017578 172.11474609 -46.93017578 172.11474609 -45.93017578 175.11474609 C-48.43972583 176.23545752 -50.95564542 177.30969911 -53.49267578 178.36474609 C-54.19714844 178.68443359 -54.90162109 179.00412109 -55.62744141 179.33349609 C-60.83136195 181.44384175 -60.83136195 181.44384175 -63.984375 180.49951172 C-67.23934716 178.75265725 -68.74693537 177.66446733 -69.93017578 174.11474609 C-70.51412109 173.82857422 -71.09806641 173.54240234 -71.69970703 173.24755859 C-84.82964957 166.57911142 -92.72626891 145.71397904 -97.07958984 132.66894531 C-104.35206078 109.44552146 -102.64302391 83.20611065 -92.48486328 61.06005859 C-78.5531308 34.66677645 -56.8939424 14.53939685 -28.23876953 5.10693359 C-18.73253512 2.25618561 -9.8878065 0.58781546 0 0 Z " fill="#8BCDF3" transform="translate(470.93017578125,372.88525390625)"/>
<path d="M0 0 C14.08438902 8.54499532 31.19181543 8.87451313 47.1484375 6.91015625 C47.1484375 6.25015625 47.1484375 5.59015625 47.1484375 4.91015625 C50.60997596 1.91015625 50.60997596 1.91015625 53.1484375 1.91015625 C53.27137361 10.32249834 50.81507701 14.83271558 45.1484375 20.91015625 C44.3028125 21.81765625 43.4571875 22.72515625 42.5859375 23.66015625 C40.76579096 25.34029152 38.94144093 26.9128058 37.0234375 28.47265625 C34.18149015 30.64822096 34.18149015 30.64822096 32.80859375 32.95703125 C30.64275104 35.5050815 28.93634559 35.84053875 25.7109375 36.59765625 C24.28974609 36.94376953 24.28974609 36.94376953 22.83984375 37.296875 C21.95167969 37.49925781 21.06351563 37.70164062 20.1484375 37.91015625 C18.8144539 38.24087764 17.48083925 38.57311846 16.1484375 38.91015625 C16.1484375 39.57015625 16.1484375 40.23015625 16.1484375 40.91015625 C14.56476003 40.76810884 12.98150432 40.62135472 11.3984375 40.47265625 C10.51671875 40.39144531 9.635 40.31023438 8.7265625 40.2265625 C6.1484375 39.91015625 6.1484375 39.91015625 4.05078125 39.375 C1.87780487 38.76427295 1.87780487 38.76427295 -1.5390625 38.91015625 C-2.6321875 38.91015625 -3.7253125 38.91015625 -4.8515625 38.91015625 C-5.1815625 38.58015625 -5.5115625 38.25015625 -5.8515625 37.91015625 C-7.63227496 37.82289402 -9.4163939 37.80316584 -11.19921875 37.8125 C-12.27880859 37.81572266 -13.35839844 37.81894531 -14.47070312 37.82226562 C-16.17516602 37.83483398 -16.17516602 37.83483398 -17.9140625 37.84765625 C-19.62432617 37.85442383 -19.62432617 37.85442383 -21.36914062 37.86132812 C-24.19666601 37.87315878 -27.0240889 37.88964215 -29.8515625 37.91015625 C-29.8515625 38.24015625 -29.8515625 38.57015625 -29.8515625 38.91015625 C-31.5015625 38.91015625 -33.1515625 38.91015625 -34.8515625 38.91015625 C-34.8515625 38.58015625 -34.8515625 38.25015625 -34.8515625 37.91015625 C-35.45484375 37.93335938 -36.058125 37.9565625 -36.6796875 37.98046875 C-37.47890625 37.99851562 -38.278125 38.0165625 -39.1015625 38.03515625 C-39.89046875 38.05835938 -40.679375 38.0815625 -41.4921875 38.10546875 C-44.05888191 37.89299405 -45.6431692 37.1966973 -47.8515625 35.91015625 C-48.1815625 36.90015625 -48.5115625 37.89015625 -48.8515625 38.91015625 C-52.93477769 40.4207963 -56.48771761 41.12547754 -60.8515625 40.91015625 C-77.43546896 32.96370107 -88.07181871 17.01407385 -94.96875 0.57421875 C-95.8515625 -2.08984375 -95.8515625 -2.08984375 -95.8515625 -6.08984375 C-94.34529297 -6.63511719 -94.34529297 -6.63511719 -92.80859375 -7.19140625 C-86.05798667 -9.66344786 -79.41968363 -12.20181907 -72.9140625 -15.27734375 C-70.89422032 -16.21697729 -68.87350176 -17.15473132 -66.8515625 -18.08984375 C-66.12324219 -18.43402344 -65.39492188 -18.77820313 -64.64453125 -19.1328125 C-41.09086738 -28.72541365 -18.68089485 -12.4614686 0 0 Z " fill="#4DBEF6" transform="translate(496.8515625,504.08984375)"/>
<path d="M0 0 C1.11639359 -0.00101212 1.11639359 -0.00101212 2.25534058 -0.00204468 C19.21636513 0.02244001 34.1702018 2.68258385 50.1875 8.25 C51.05375 8.54519531 51.92 8.84039063 52.8125 9.14453125 C64.51236527 13.47269087 76.11152813 19.9298495 86.1875 27.25 C85.30422509 32.50001921 81.68279234 35.06759915 77.9375 38.5625 C77.26847656 39.22056641 76.59945312 39.87863281 75.91015625 40.55664062 C74.92595703 41.48186523 74.92595703 41.48186523 73.921875 42.42578125 C73.32600586 42.99208252 72.73013672 43.55838379 72.11621094 44.1418457 C70.1875 45.25 70.1875 45.25 67.62280273 45.02661133 C64.50726486 44.03307489 62.20760283 42.45838336 59.5 40.625 C38.59164 27.25478137 14.55734126 24.01649957 -9.8125 25.25 C-10.51568359 25.28335449 -11.21886719 25.31670898 -11.94335938 25.35107422 C-30.46116163 26.45062772 -51.56930221 34.26551828 -65.8125 46.25 C-70.51607991 44.11678512 -73.82415012 40.80704445 -77.5625 37.3125 C-78.25988281 36.67892578 -78.95726562 36.04535156 -79.67578125 35.39257812 C-80.33449219 34.77962891 -80.99320312 34.16667969 -81.671875 33.53515625 C-82.57631348 32.69803101 -82.57631348 32.69803101 -83.49902344 31.84399414 C-84.8125 30.25 -84.8125 30.25 -84.8125 27.25 C-83.39819336 26.01074219 -83.39819336 26.01074219 -81.40234375 24.796875 C-80.29959106 24.12023804 -80.29959106 24.12023804 -79.17456055 23.42993164 C-77.97440308 22.72211548 -77.97440308 22.72211548 -76.75 22 C-75.93378174 21.51200928 -75.11756348 21.02401855 -74.27661133 20.52124023 C-51.44832533 7.08173885 -26.47954432 0.02140626 0 0 Z " fill="#2196DE" transform="translate(477.8125,579.75)"/>
<path d="M0 0 C1.05075642 17.44208406 1.19686423 34.86761348 1.23828125 52.3359375 C1.24234314 53.81209961 1.2464604 55.28826157 1.25063133 56.76442337 C1.26953759 63.68257081 1.28381911 70.60070832 1.2922433 77.51887643 C1.30207771 85.45667079 1.32861756 93.39419097 1.36874419 101.33188856 C1.39890825 107.51326421 1.41371086 113.69456082 1.41702431 119.87600863 C1.41936648 123.55090197 1.42822451 127.22549718 1.45348549 130.90031052 C1.48111636 134.98238427 1.47693442 139.06383475 1.4699707 143.14599609 C1.48278076 144.35018692 1.49559082 145.55437775 1.50878906 146.7950592 C1.46785676 153.36883519 1.1138036 157.7405791 -3 163 C-3.99 163.33 -4.98 163.66 -6 164 C-8.62890625 162.3828125 -8.62890625 162.3828125 -11.5625 160.125 C-15.12868337 157.31857636 -15.12868337 157.31857636 -19 155 C-19 154.34 -19 153.68 -19 153 C-19.71115967 152.72816895 -20.42231934 152.45633789 -21.1550293 152.17626953 C-24.03887296 150.98392775 -26.75715487 149.63032091 -29.51953125 148.1796875 C-30.54111328 147.64472656 -31.56269531 147.10976563 -32.61523438 146.55859375 C-33.67033203 146.00300781 -34.72542969 145.44742188 -35.8125 144.875 C-37.42415039 144.03001953 -37.42415039 144.03001953 -39.06835938 143.16796875 C-41.71338105 141.78080182 -44.35720895 140.3914106 -47 139 C-46.505 138.01 -46.505 138.01 -46 137 C-45.01 137 -44.02 137 -43 137 C-36.08782627 130.21293348 -31.05682753 121.21127848 -26 113 C-25.25556641 111.82824219 -25.25556641 111.82824219 -24.49609375 110.6328125 C-21.04410417 104.89753201 -19.09883828 98.70742812 -17.11328125 92.35546875 C-16 89 -16 89 -14.92578125 87.06640625 C-13.45319549 83.77949541 -13.25116496 80.29581724 -12.875 76.75 C-12.78863281 76.02425781 -12.70226562 75.29851562 -12.61328125 74.55078125 C-11.34807533 66.06333899 -11.34807533 66.06333899 -13 58 C-13.27282476 55.64836922 -13.51788207 53.29349702 -13.75 50.9375 C-15.31548703 37.32718976 -19.55296831 25.09751696 -25.64453125 12.87890625 C-27 10 -27 10 -27 8 C-27.66 8 -28.32 8 -29 8 C-28.34 6.68 -27.68 5.36 -27 4 C-19.41 4 -11.82 4 -4 4 C-4 3.34 -4 2.68 -4 2 C-1 0 -1 0 0 0 Z " fill="#1DA1E5" transform="translate(598,417)"/>
<path d="M0 0 C4.95 0 9.9 0 15 0 C15.36351562 1.61455078 15.36351562 1.61455078 15.734375 3.26171875 C17.53863211 11.16352824 19.51393183 18.91558842 21.984375 26.640625 C23.91440631 33.02457471 25.43576455 39.51840735 27 46 C30.2700108 36.58063259 33.18200723 27.10458825 35.85595703 17.49926758 C37.4116163 11.93749326 39.13387104 6.46588068 41 1 C45.95 1 50.9 1 56 1 C58.32176396 6.94564479 60.21685372 12.91806196 61.9375 19.0625 C62.19547363 19.97700928 62.45344727 20.89151855 62.71923828 21.83374023 C63.48410491 24.55456169 64.24277868 27.27704227 65 30 C65.21897949 30.78117187 65.43795898 31.56234375 65.66357422 32.3671875 C66.2404644 34.43059106 66.80963053 36.49591412 67.375 38.5625 C67.69210937 39.71878906 68.00921875 40.87507813 68.3359375 42.06640625 C69 45 69 45 69 49 C69.66 49 70.32 49 71 49 C70.9175 47.989375 70.835 46.97875 70.75 45.9375 C70.76203921 39.07515265 73.08276388 32.52855856 75 26 C75.21382324 25.26910156 75.42764648 24.53820312 75.64794922 23.78515625 C76.50819955 20.85025935 77.36866381 17.91558282 78.2487793 14.98657227 C79.63566974 10.35293141 80.85529389 5.6995962 82 1 C86.62 1 91.24 1 96 1 C95.48597772 6.52573954 93.97687521 11.48432679 92.296875 16.76171875 C90.59961556 22.19699006 89.13497209 27.69800221 87.625 33.1875 C80.46495816 59.07008368 80.46495816 59.07008368 77 66 C72.05 66 67.1 66 62 66 C61.64808594 64.7625 61.29617188 63.525 60.93359375 62.25 C60.43495593 60.49998288 59.93625255 58.74998443 59.4375 57 C59.17372559 56.0726001 58.90995117 55.1452002 58.63818359 54.18969727 C57.13465668 48.91858616 55.60672774 43.65592336 54.04296875 38.40234375 C53.72336182 37.32404297 53.40375488 36.24574219 53.07446289 35.13476562 C52.449212 33.02926663 51.81960079 30.92505679 51.18530273 28.82226562 C50.89985596 27.85869141 50.61440918 26.89511719 50.3203125 25.90234375 C50.06523926 25.05148193 49.81016602 24.20062012 49.54736328 23.32397461 C49 21 49 21 49 17 C48.34 17 47.68 17 47 17 C46.89171875 18.27617187 46.7834375 19.55234375 46.671875 20.8671875 C46.08275789 26.13834375 44.76028169 31.05190582 43.25 36.125 C42.98485596 37.03499756 42.71971191 37.94499512 42.4465332 38.88256836 C40.44970984 45.66604385 38.28339841 52.38120267 35.98046875 59.06640625 C34.90720393 62.15162122 34.90720393 62.15162122 34 66 C28.72 66 23.44 66 18 66 C15.85331978 59.25329073 13.85172129 52.56772223 12.1875 45.6875 C9.29219045 33.72698968 5.76262216 21.90704854 2.11767578 10.15527344 C1.84294434 9.26614258 1.56821289 8.37701172 1.28515625 7.4609375 C0.9140271 6.27830322 0.9140271 6.27830322 0.53540039 5.07177734 C0 3 0 3 0 0 Z " fill="#1288CD" transform="translate(643,463)"/>
<path d="M0 0 C1.18851562 0.32613281 2.37703125 0.65226563 3.6015625 0.98828125 C11.19940776 3.25016852 17.72811886 7.22791653 24 12 C22.4095075 16.12747439 19.40362718 18.68081893 16.1875 21.5625 C15.40536133 22.28469727 15.40536133 22.28469727 14.60742188 23.02148438 C8.63854866 28.4389261 8.63854866 28.4389261 5 30 C2.78125 29.3046875 2.78125 29.3046875 0.5 27.875 C-13.7312882 20.05722312 -32.46975349 20.05330457 -48 24 C-51.18759141 25.24024909 -54.26973073 26.5752121 -57.34375 28.07421875 C-60.58650683 29.20441488 -61.80244542 29.26347141 -65 28 C-67.38190998 26.19345758 -69.49496621 24.15606061 -71.625 22.0625 C-72.76138248 20.96834795 -73.89934771 19.8758368 -75.0390625 18.78515625 C-75.53615723 18.29926025 -76.03325195 17.81336426 -76.54541016 17.31274414 C-78.17439709 15.77853413 -78.17439709 15.77853413 -81 14 C-79.11696613 9.44933482 -76.52042607 7.65965576 -72.046875 5.71875 C-70.95890625 5.3165625 -69.8709375 4.914375 -68.75 4.5 C-67.02136719 3.85611328 -67.02136719 3.85611328 -65.2578125 3.19921875 C-63.64519531 2.60560547 -63.64519531 2.60560547 -62 2 C-60.54143741 1.43809474 -59.0830589 0.87571099 -57.625 0.3125 C-39.355537 -6.30230557 -18.3529288 -6.08801754 0 0 Z " fill="#1577D0" transform="translate(507,626)"/>
<path d="M0 0 C5.38237133 2.84351693 7.42409146 5.65737489 10 11 C12.1251398 18.09796692 11.4750742 24.37916342 8.203125 30.9921875 C5.45517026 35.57806002 1.74011314 38.62994343 -3 41 C-12.11068178 43.25779548 -21.70965307 43.34925806 -29.94140625 38.55078125 C-35.28661645 34.52412385 -37.77872348 29.55048315 -39 23 C-39.54035827 16.94026795 -39.50735242 12.20055703 -36 7 C-26.62810615 -3.93387615 -12.89542194 -5.94778905 0 0 Z " fill="#093977" transform="translate(1170,489)"/>
<path d="M0 0 C5.73348025 3.41117985 9.1462764 7.50818628 11.3125 13.875 C12.26497193 21.18466831 11.42521338 27.67577807 7.3125 33.875 C2.50990772 39.29390557 -2.6336806 41.76737271 -9.89453125 42.28125 C-24.76736702 42.77658372 -24.76736702 42.77658372 -31.05859375 37.51953125 C-36.58195615 31.94318695 -38.73606346 27.37800179 -39.0625 19.5 C-38.91680754 13.18380348 -37.36236226 8.78302217 -33.07421875 4.12109375 C-24.56726284 -3.70681468 -10.42174594 -4.8739293 0 0 Z " fill="#093A78" transform="translate(989.6875,488.125)"/>
<path d="M0 0 C3.65321146 3.02728523 7.00007902 6.29427395 10.30810547 9.69238281 C10.98486328 10.37171875 11.66162109 11.05105469 12.35888672 11.75097656 C24.2098851 24.39028969 30.70886781 41.39554379 30.37841797 58.60253906 C30.35521484 59.2921875 30.33201172 59.98183594 30.30810547 60.69238281 C27.98028105 58.36455839 27.93591391 57.48815441 27.43310547 54.31738281 C26.48430737 49.06838686 24.88645766 44.18435837 23.11279297 39.16113281 C22.30810547 36.69238281 22.30810547 36.69238281 22.30810547 34.69238281 C21.64810547 34.69238281 20.98810547 34.69238281 20.30810547 34.69238281 C19.92332031 33.78359375 19.92332031 33.78359375 19.53076172 32.85644531 C13.5910119 19.85699284 4.27978918 12.7008628 -7.69189453 5.69238281 C-8.26141846 5.34046875 -8.83094238 4.98855469 -9.41772461 4.62597656 C-24.40808082 -4.43179308 -45.85738398 -4.69129287 -62.55859375 -1.12231445 C-69.42334079 0.59428957 -75.5696692 3.19550542 -81.69189453 6.69238281 C-82.43568359 7.05976563 -83.17947266 7.42714844 -83.94580078 7.80566406 C-96.7379659 14.27961197 -107.40854852 25.91423203 -113.69189453 38.69238281 C-115.67189453 38.69238281 -117.65189453 38.69238281 -119.69189453 38.69238281 C-121.35957215 41.69420252 -122.0365754 44.3386908 -122.69189453 47.69238281 C-123.19757777 49.63389204 -123.71862658 51.57145934 -124.25439453 53.50488281 C-124.52380859 54.48070312 -124.79322266 55.45652344 -125.07080078 56.46191406 C-125.37824219 57.56599609 -125.37824219 57.56599609 -125.69189453 58.69238281 C-126.02189453 58.69238281 -126.35189453 58.69238281 -126.69189453 58.69238281 C-128.72869105 41.56820465 -119.66184432 25.92914803 -109.53564453 12.92285156 C-83.31185017 -18.00412331 -32.73583598 -25.30059705 0 0 Z " fill="#DDF2FB" transform="translate(525.69189453125,417.3076171875)"/>
<path d="M0 0 C4.29 0 8.58 0 13 0 C13.33 8.58 13.66 17.16 14 26 C15.65 24.68 17.3 23.36 19 22 C24.9107637 20.02974543 31.62848544 20.19537899 37.5 22.1875 C40.85570098 24.62038321 43.14707145 27.29414291 45 31 C45.08658569 33.55362604 45.11562516 36.0795442 45.09765625 38.6328125 C45.0962413 39.38464813 45.09482635 40.13648376 45.09336853 40.91110229 C45.08776465 43.3157751 45.07521157 45.72035527 45.0625 48.125 C45.0574855 49.75390491 45.0529225 51.38281127 45.04882812 53.01171875 C45.03779397 57.00784827 45.02052679 61.00390842 45 65 C40.71 65 36.42 65 32 65 C31.95101562 62.86917969 31.90203125 60.73835937 31.8515625 58.54296875 C31.79754147 56.4777122 31.74023854 54.41257098 31.68261719 52.34741211 C31.64435134 50.91292932 31.60949419 49.47835135 31.578125 48.04370117 C31.53242138 45.98061122 31.47443807 43.91817505 31.4140625 41.85546875 C31.3826416 40.61434326 31.3512207 39.37321777 31.31884766 38.09448242 C31.22600791 34.83363899 31.22600791 34.83363899 29 32 C25.37296974 30.79098991 21.75982637 30.21339525 18 31 C15.02167359 33.26968173 14.09020634 34.46989657 13.45410156 38.20800781 C13.4331543 39.44389648 13.41220703 40.67978516 13.390625 41.953125 C13.37408875 42.61334656 13.35755249 43.27356812 13.34051514 43.95379639 C13.29211549 46.05262626 13.27068481 48.15073222 13.25 50.25 C13.22183317 51.6771196 13.19190472 53.10420559 13.16015625 54.53125 C13.08305351 58.02116347 13.04247193 61.50880769 13 65 C8.71 65 4.42 65 0 65 C0 43.55 0 22.1 0 0 Z " fill="#0D78C1" transform="translate(840,464)"/>
<path d="M0 0 C0 3.3 0 6.6 0 10 C-7.4637511 9.11447021 -7.4637511 9.11447021 -10.37890625 8.4921875 C-17.46450297 7.16165816 -24.70774985 6.6225422 -31.0625 10.4375 C-35.47538931 13.93374135 -37.79283824 17.49981928 -39 23 C-39.90637759 31.24326564 -39.78352774 38.96448679 -35 46 C-31.03297741 49.96702259 -27.14346871 51.83511779 -21.546875 52.265625 C-14.37975816 52.23613069 -7.91232077 51.94030057 -1 50 C-1 53.3 -1 56.6 -1 60 C-14.20558483 63.99736622 -26.13979955 64.61384398 -39 59 C-47.35501 54.34047519 -51.03946775 47.88159674 -54 39 C-55.22305079 27.90099287 -55.09802917 17.14889415 -48 8 C-35.09908644 -5.01776966 -16.63312304 -5.54437435 0 0 Z " fill="#0A3C7B" transform="translate(947,468)"/>
<path d="M0 0 C0.80308594 -0.02449219 1.60617187 -0.04898437 2.43359375 -0.07421875 C9.44749868 -0.10832202 14.62280819 1.58927408 19.70410156 6.5090332 C22.02175958 10.20764488 22.0084822 13.29636291 21.890625 17.51953125 C21.88496521 18.28931808 21.87930542 19.05910492 21.87347412 19.85221863 C21.85117872 22.29795943 21.80099875 24.7422061 21.75 27.1875 C21.729926 28.85089022 21.7116768 30.51430353 21.6953125 32.17773438 C21.65133684 36.24406058 21.58235979 40.30927744 21.5 44.375 C17.87 44.375 14.24 44.375 10.5 44.375 C10.5 42.725 10.5 41.075 10.5 39.375 C9.68595703 39.89900391 9.68595703 39.89900391 8.85546875 40.43359375 C8.14003906 40.88863281 7.42460938 41.34367188 6.6875 41.8125 C5.62595703 42.49119141 5.62595703 42.49119141 4.54296875 43.18359375 C-0.98144999 46.4052911 -7.30679636 45.9234756 -13.5 45.375 C-17.98092 43.28905449 -20.65401065 40.98997339 -22.5 36.375 C-23.3188334 31.46199963 -23.06634465 28.33070659 -20.5 24 C-14.10346865 18.40303507 -7.63229261 17.94390598 0.5 18.1875 C1.80517578 18.20780273 1.80517578 18.20780273 3.13671875 18.22851562 C5.25808627 18.26348322 7.37912974 18.3172747 9.5 18.375 C8.84 15.735 8.18 13.095 7.5 10.375 C-1.0688593 8.44854782 -9.07112571 9.16414773 -17.5 11.375 C-17.5 8.405 -17.5 5.435 -17.5 2.375 C-11.55501169 0.67058821 -6.17380667 0.0099098 0 0 Z " fill="#1281C8" transform="translate(762.5,484.625)"/>
<path d="M0 0 C3.77199847 1.9063664 5.51785656 4.73358988 7.5625 8.375 C7.89924287 11.19458784 8.03426343 13.59726174 7.953125 16.3984375 C7.94746521 17.14461334 7.94180542 17.89078918 7.93597412 18.65957642 C7.91372898 21.02372637 7.86355984 23.38631459 7.8125 25.75 C7.79241944 27.36065507 7.7741714 28.97133409 7.7578125 30.58203125 C7.71390381 34.51361507 7.64496318 38.44404352 7.5625 42.375 C5.58340602 42.40186553 3.60421029 42.42133375 1.625 42.4375 C0.52285156 42.44910156 -0.57929687 42.46070313 -1.71484375 42.47265625 C-4.4375 42.375 -4.4375 42.375 -5.4375 41.375 C-5.57183925 39.19269574 -5.64115363 37.00633578 -5.68359375 34.8203125 C-5.71653692 33.47004572 -5.74974849 32.11978546 -5.78320312 30.76953125 C-5.83060306 28.63432388 -5.87501579 26.49914209 -5.91430664 24.36376953 C-5.95404573 22.30733103 -6.00559091 20.25144589 -6.05859375 18.1953125 C-6.0836499 16.96055176 -6.10870605 15.72579102 -6.13452148 14.45361328 C-6.21036222 11.20595322 -6.21036222 11.20595322 -8.4375 8.375 C-10.69331529 7.82053683 -10.69331529 7.82053683 -13.25 7.875 C-14.10207031 7.8440625 -14.95414063 7.813125 -15.83203125 7.78125 C-19.59822689 8.63951348 -21.0040324 10.42185709 -23.4375 13.375 C-24.20977812 16.64368785 -24.20977812 16.64368785 -24.14453125 20.20703125 C-24.17353516 21.49931641 -24.20253906 22.79160156 -24.23242188 24.12304688 C-24.2388102 25.47786219 -24.24466288 26.83268013 -24.25 28.1875 C-24.27315748 29.5618884 -24.29852545 30.93624144 -24.32617188 32.31054688 C-24.38503342 35.66565515 -24.42132337 39.01945874 -24.4375 42.375 C-26.41659398 42.40186553 -28.39578971 42.42133375 -30.375 42.4375 C-31.47714844 42.44910156 -32.57929687 42.46070313 -33.71484375 42.47265625 C-36.4375 42.375 -36.4375 42.375 -37.4375 41.375 C-37.52624135 38.27248799 -37.55268455 35.1923188 -37.53515625 32.08984375 C-37.5337413 31.15902481 -37.53232635 30.22820587 -37.53086853 29.2691803 C-37.52525172 26.28358809 -37.5126964 23.29806971 -37.5 20.3125 C-37.49498716 18.29362087 -37.49042388 16.27474057 -37.48632812 14.25585938 C-37.47527683 9.29554428 -37.45800095 4.33528468 -37.4375 -0.625 C-33.4775 -0.625 -29.5175 -0.625 -25.4375 -0.625 C-25.4375 1.025 -25.4375 2.675 -25.4375 4.375 C-24.96699219 4.02566406 -24.49648438 3.67632812 -24.01171875 3.31640625 C-23.38910156 2.86136719 -22.76648438 2.40632813 -22.125 1.9375 C-21.51011719 1.48503906 -20.89523437 1.03257812 -20.26171875 0.56640625 C-14.52530845 -3.18007157 -6.08030697 -2.75442477 0 0 Z " fill="#0C3C7A" transform="translate(1045.4375,487.625)"/>
<path d="M0 0 C5.51436006 3.86816139 10.36151146 8.12364026 15 13 C14.67 13.66 14.34 14.32 14 15 C13.154375 14.236875 12.30875 13.47375 11.4375 12.6875 C8.17996332 9.9508582 4.96276872 8.50585211 1 7 C1 6.34 1 5.68 1 5 C0.34 5 -0.32 5 -1 5 C-1 4.34 -1 3.68 -1 3 C-5.455 2.01 -5.455 2.01 -10 1 C-10 0.34 -10 -0.32 -10 -1 C-10.91523437 -1.13277344 -11.83046875 -1.26554687 -12.7734375 -1.40234375 C-14.55621094 -1.66724609 -14.55621094 -1.66724609 -16.375 -1.9375 C-17.55835938 -2.11152344 -18.74171875 -2.28554688 -19.9609375 -2.46484375 C-23 -3 -23 -3 -25 -4 C-42.26881851 -7.72777078 -63.13469437 -0.63083931 -78 8 C-81.48762298 10.495588 -84.73807142 13.21899678 -88 16 C-89.70324885 17.38129328 -91.41157527 18.75634976 -93.125 20.125 C-93.94097656 20.78113281 -94.75695312 21.43726563 -95.59765625 22.11328125 C-98.50159131 24.39393269 -101.48233664 26.55399494 -104.50390625 28.67578125 C-106.28935565 30.03341274 -106.28935565 30.03341274 -107 33 C-107.66 32.67 -108.32 32.34 -109 32 C-110.7015625 32.0309375 -110.7015625 32.0309375 -112.4375 32.0625 C-116 32 -116 32 -119 30 C-117.02 30 -115.04 30 -113 30 C-112.90460938 29.44441406 -112.80921875 28.88882813 -112.7109375 28.31640625 C-108.9409331 16.03282048 -94.94067404 4.02853467 -84 -2 C-57.39670914 -15.87288174 -25.25940722 -16.99907077 0 0 Z " fill="#5AC9F4" transform="translate(525,426)"/>
<path d="M0 0 C0.72960937 -0.00773437 1.45921875 -0.01546875 2.2109375 -0.0234375 C7.04221499 -0.00618294 11.03981766 0.72563859 15.625 2.25 C15.625 5.22 15.625 8.19 15.625 11.25 C14.60792969 11.0334375 14.60792969 11.0334375 13.5703125 10.8125 C2.96950141 8.38964438 2.96950141 8.38964438 -7.375 10.25 C-7.50940778 12.67919865 -7.50940778 12.67919865 -6.375 15.25 C-2.7510434 16.95941349 0.80138353 18.01589713 4.6484375 19.109375 C15.38172893 22.34261341 15.38172893 22.34261341 18.625 28.25 C19.17457629 32.16573105 19.00926299 34.40462142 17.375 38 C13.00389015 43.61999838 7.39358751 44.98411913 0.625 46.25 C-7.07543834 46.98477465 -13.21162759 46.11534896 -20.375 43.25 C-20.375 40.28 -20.375 37.31 -20.375 34.25 C-19.39144531 34.57613281 -18.40789063 34.90226563 -17.39453125 35.23828125 C-13.2429024 36.42281801 -9.35478576 36.51308242 -5.0625 36.4375 C-4.34771484 36.43685547 -3.63292969 36.43621094 -2.89648438 36.43554688 C0.99281033 36.46168253 0.99281033 36.46168253 4.625 35.25 C4.625 33.93 4.625 32.61 4.625 31.25 C0.64109843 29.43126233 -3.21263629 27.97577564 -7.4375 26.8125 C-13.0838778 25.17101117 -17.02480249 23.27529627 -20.375 18.25 C-21.04346449 14.81302769 -21.07971938 11.68283756 -20.375 8.25 C-15.33232025 1.29506809 -8.14641326 -0.08545189 0 0 Z " fill="#1584CA" transform="translate(813.375,484.75)"/>
<path d="M0 0 C4.29 0 8.58 0 13 0 C13 4.29 13 8.58 13 13 C17.29 13 21.58 13 26 13 C26 15.64 26 18.28 26 21 C21.38 21 16.76 21 12 21 C12.08688729 24.75113415 12.19376778 28.49985418 12.3125 32.25 C12.33505859 33.31347656 12.35761719 34.37695312 12.38085938 35.47265625 C12.4340332 37.00986328 12.4340332 37.00986328 12.48828125 38.578125 C12.51446533 39.52075195 12.54064941 40.46337891 12.56762695 41.43457031 C13.06945844 44.4121227 13.93701203 45.82184523 16 48 C18.26300895 48.6921369 18.26300895 48.6921369 20.6875 48.75 C21.89986328 48.83507812 21.89986328 48.83507812 23.13671875 48.921875 C24.05904297 48.96054687 24.05904297 48.96054687 25 49 C25 51.64 25 54.28 25 57 C22.45716766 57.10871967 19.91904912 57.18762401 17.375 57.25 C16.66214844 57.28351562 15.94929688 57.31703125 15.21484375 57.3515625 C10.00792508 57.44710229 7.07691396 56.51499326 3 53 C0.13995856 49.10625969 -0.36111439 46.39837892 -0.29296875 41.60546875 C-0.28330078 40.40341797 -0.27363281 39.20136719 -0.26367188 37.96289062 C-0.23853516 36.71701172 -0.21339844 35.47113281 -0.1875 34.1875 C-0.17396484 32.92228516 -0.16042969 31.65707031 -0.14648438 30.35351562 C-0.11118318 27.23524357 -0.06186819 24.11783958 0 21 C-2.64 21 -5.28 21 -8 21 C-8 18.36 -8 15.72 -8 13 C-5.36 13 -2.72 13 0 13 C0 8.71 0 4.42 0 0 Z " fill="#093875" transform="translate(1065,474)"/>
<path d="M0 0 C4.29 0 8.58 0 13 0 C13 20.79 13 41.58 13 63 C8.71 63 4.42 63 0 63 C0 42.21 0 21.42 0 0 Z " fill="#0D3F81" transform="translate(1189,467)"/>
<path d="M0 0 C1.64198364 -0.00574036 1.64198364 -0.00574036 3.31713867 -0.01159668 C5.63038045 -0.01431736 7.94365292 -0.00694534 10.25683594 0.00976562 C13.79952522 0.0311716 17.34018636 0.00996774 20.8828125 -0.015625 C23.13021281 -0.01298175 25.37761187 -0.00785684 27.625 0 C28.68549561 -0.00809692 29.74599121 -0.01619385 30.83862305 -0.02453613 C38.12150466 0.06842292 38.12150466 0.06842292 41.515625 2.34179688 C42.8125 4.53125 42.8125 4.53125 42.75 8.09375 C41.81945483 11.50574894 41.53065843 12.49073629 38.8125 14.53125 C36.58045959 14.91893005 36.58045959 14.91893005 33.94555664 14.93530273 C32.9576564 14.94798691 31.96975616 14.96067108 30.95191956 14.97373962 C29.35343422 14.96933617 29.35343422 14.96933617 27.72265625 14.96484375 C26.07855019 14.97270653 26.07855019 14.97270653 24.40122986 14.98072815 C22.0820297 14.98715481 19.76279697 14.98580307 17.44360352 14.97729492 C13.89215083 14.96879107 10.34230906 14.99752953 6.79101562 15.02929688 C4.53906298 15.03090907 2.28710749 15.03033101 0.03515625 15.02734375 C-1.02847641 15.03857773 -2.09210907 15.04981171 -3.18797302 15.06138611 C-10.52016752 14.99198215 -10.52016752 14.99198215 -13.85766602 12.68774414 C-15.69000591 9.71637306 -15.75888246 7.95954476 -15.1875 4.53125 C-11.70461934 -1.10162004 -5.90833109 -0.04511033 0 0 Z " fill="#CDECF9" transform="translate(390.1875,343.46875)"/>
<path d="M0 0 C0 3.63 0 7.26 0 11 C-2.0728125 10.9071875 -2.0728125 10.9071875 -4.1875 10.8125 C-8.3124148 10.81897553 -10.73027496 11.30728526 -14 14 C-16.97424439 17.23869222 -17.40068692 19.50692724 -17.51171875 23.859375 C-17.54716797 24.97441406 -17.58261719 26.08945312 -17.61914062 27.23828125 C-17.65297852 28.97658203 -17.65297852 28.97658203 -17.6875 30.75 C-17.72166016 31.92433594 -17.75582031 33.09867188 -17.79101562 34.30859375 C-17.8734449 37.20539401 -17.93840013 40.10268196 -18 43 C-21.96 43 -25.92 43 -30 43 C-30 29.14 -30 15.28 -30 1 C-26.04 1 -22.08 1 -18 1 C-17.67 2.65 -17.34 4.3 -17 6 C-16.2575 5.38125 -15.515 4.7625 -14.75 4.125 C-9.51971926 0.08341943 -6.52762767 -0.21758759 0 0 Z " fill="#073673" transform="translate(1128,486)"/>
<path d="M0 0 C0.70125 0.165 1.4025 0.33 2.125 0.5 C4 1 4 1 6 2 C6 2.66 6 3.32 6 4 C10.455 4.99 10.455 4.99 15 6 C15 6.66 15 7.32 15 8 C15.66 8 16.32 8 17 8 C17 8.66 17 9.32 17 10 C17.969375 10.185625 18.93875 10.37125 19.9375 10.5625 C25.8239449 12.2733976 31.10771765 16.10086154 34.4609375 21.23828125 C35.40087753 23.1148282 36.21464564 25.05368702 37 27 C34.69 26.67 32.38 26.34 30 26 C29.69449219 24.93458984 29.69449219 24.93458984 29.3828125 23.84765625 C27.58839998 20.15238301 25.03412593 17.9421336 21.875 15.4375 C21.26406494 14.95297363 20.65312988 14.46844727 20.02368164 13.96923828 C13.25220801 8.94769604 6.18270984 7.37140388 -2 6 C-2.77931885 5.82637939 -3.5586377 5.65275879 -4.36157227 5.47387695 C-9.31890294 4.58351156 -14.35200037 4.81539343 -19.375 4.8125 C-20.48617187 4.80025391 -21.59734375 4.78800781 -22.7421875 4.77539062 C-28.61345839 4.76490621 -33.43247947 5.18250363 -39 7 C-39.66 6.67 -40.32 6.34 -41 6 C-42.67419438 6.9873454 -44.34051852 7.98812105 -46 9 C-46.99 9 -47.98 9 -49 9 C-52.12492242 9.56816771 -54.39031792 10.67592469 -57.0625 12.375 C-58.06990234 13.00535156 -58.06990234 13.00535156 -59.09765625 13.6484375 C-61.03227325 14.9273435 -61.03227325 14.9273435 -62.49609375 16.6015625 C-64 18 -64 18 -65.8125 18.359375 C-69.24189756 19.36369857 -71.46278499 21.84466993 -74 24.25 C-74.52078125 24.72824219 -75.0415625 25.20648438 -75.578125 25.69921875 C-79.92086653 29.74586426 -83.47061818 34.23533455 -87 39 C-88.32 38.01 -89.64 37.02 -91 36 C-90.62203092 33.63139378 -90.34110976 32.32335336 -88.57421875 30.6484375 C-87.64029297 30.01808594 -87.64029297 30.01808594 -86.6875 29.375 C-83.00295123 26.77142797 -79.56256506 23.98553919 -76.125 21.0625 C-62.50045285 9.61950109 -49.33077536 2.69982845 -32 -1 C-30.99582031 -1.23847656 -29.99164063 -1.47695313 -28.95703125 -1.72265625 C-19.10701965 -3.86890697 -9.66161113 -2.493319 0 0 Z " fill="#2E9AD9" transform="translate(509,423)"/>
<path d="M0 0 C3.18459646 1.51992104 5.73579966 3.28295959 8 6 C9.70569046 11.11707137 10.04733695 17.07056743 8.2109375 22.20703125 C6.49718085 25.31403281 4.96706345 27.0219577 2 29 C-1.39232223 29.54622138 -4.60579836 29.53136064 -8 29 C-11.75959289 26.25863018 -13.89566177 23.51774732 -15 19 C-15.55417018 13.91868569 -15.59956406 10.17771512 -13.25 5.5625 C-8.95791439 0.67429139 -6.718434 -0.70720358 0 0 Z " fill="#D6E7F9" transform="translate(1159,494)"/>
<path d="M0 0 C3.77350702 1.39455694 4.75763463 2.5904861 6.8125 6.0625 C8.49561201 10.62818316 8.71186549 15.20677234 8 20 C5.8338521 24.4125235 3.56138 27.09058512 -1 29 C-5.59445492 29.66828435 -7.40408449 29.39352911 -11.3125 26.8125 C-15.85416034 22.05959964 -16.50038741 18.00648063 -16.39453125 11.578125 C-15.75324252 7.38752539 -13.74307904 4.18363416 -11 1 C-7.54248509 -0.72875745 -3.78710724 -0.34786254 0 0 Z " fill="#D7E8F8" transform="translate(980,494)"/>
<path d="M0 0 C0 0.33 0 0.66 0 1 C-0.65226562 0.99097656 -1.30453125 0.98195313 -1.9765625 0.97265625 C-7.22972677 1.13222008 -7.22972677 1.13222008 -11.89453125 3.30859375 C-14.8203053 6.51583467 -16.25173736 9.45288163 -17.375 13.625 C-18.43764328 17.30966841 -19.59216571 18.8936944 -22.8125 21 C-26.14481814 22.7924299 -29.19491021 23.71461827 -33 24 C-33 24.66 -33 25.32 -33 26 C-36.82708507 27.80098121 -39.77853434 28.28143104 -44 28 C-46 27 -46 27 -46.78125 25.22265625 C-47.0184375 24.50980469 -47.255625 23.79695313 -47.5 23.0625 C-48.42402464 20.29544796 -48.89137369 19.10862631 -51 17 C-48.54988609 13.32482914 -46.02979629 12.58604534 -42.0625 11.125 C-40.69576964 10.60246509 -39.32988777 10.07770575 -37.96484375 9.55078125 C-37.29050293 9.29119629 -36.61616211 9.03161133 -35.92138672 8.76416016 C-33.27528583 7.71177187 -30.70224732 6.52252676 -28.125 5.3125 C-26.41922975 4.53601134 -24.71108699 3.76470132 -23 3 C-22.27941406 2.67773438 -21.55882812 2.35546875 -20.81640625 2.0234375 C-14.0145541 -0.64738151 -7.21447273 -0.27708501 0 0 Z " fill="#BFE9FB" transform="translate(453,483)"/>
<path d="M0 0 C3.58504673 1.34897464 6.34273402 3.27912763 8.9375 6.125 C10.53227254 10.44026687 10.81303407 14.46491089 10 19 C7.56543724 22.15835169 5.30027757 23.79981495 2 26 C-3.22623862 26.49304138 -6.56626711 25.82146638 -11 23 C-14.49025179 19.14868768 -15.45464036 15.34097745 -15.42578125 10.13671875 C-14.64365115 6.21171725 -11.91214543 3.60282428 -9 1 C-5.88111322 -0.55944339 -3.4545855 -0.28316275 0 0 Z " fill="#EBF4FA" transform="translate(515,434)"/>
<path d="M0 0 C1.875 1.6875 1.875 1.6875 3 3 C-9.11694424 15.85879797 -9.11694424 15.85879797 -16.4375 16.125 C-21.14724972 14.63771061 -24.2969178 12.20057627 -28 9 C-28.81791016 8.32324219 -28.81791016 8.32324219 -29.65234375 7.6328125 C-31.0625 6.375 -31.0625 6.375 -33 4 C-32.62109375 1.8515625 -32.62109375 1.8515625 -32 0 C-21.80087688 -3.56227169 -9.6667637 -5.87452402 0 0 Z " fill="#1675CC" transform="translate(494,667)"/>
<path d="M0 0 C-6.03969045 17.4332457 -14.18346264 32.41290029 -28 45 C-28.7115625 45.67804687 -29.423125 46.35609375 -30.15625 47.0546875 C-35.77965508 52.0040543 -35.77965508 52.0040543 -39.3515625 51.9921875 C-41.5625 51.4375 -41.5625 51.4375 -45 50 C-44.67 49.01 -44.34 48.02 -44 47 C-41.890625 46.0078125 -41.890625 46.0078125 -39.25 45.125 C-34.74832116 43.43047601 -32.13547266 41.7451479 -29 38 C-28.00297435 36.81000164 -27.00280453 35.62263262 -26 34.4375 C-25.49726562 33.839375 -24.99453125 33.24125 -24.4765625 32.625 C-23 31 -23 31 -20.375 28.9375 C-14.35443884 24.02598958 -13.10239445 18.33962618 -12 11 C-12.61875 11.495 -13.2375 11.99 -13.875 12.5 C-16 14 -16 14 -18 14 C-18 14.66 -18 15.32 -18 16 C-20.12254855 16.38863565 -22.24816828 16.76053209 -24.375 17.125 C-25.55835938 17.33382812 -26.74171875 17.54265625 -27.9609375 17.7578125 C-28.96382812 17.83773437 -29.96671875 17.91765625 -31 18 C-31.66 17.34 -32.32 16.68 -33 16 C-31.741875 15.67 -30.48375 15.34 -29.1875 15 C-21.58592176 12.48212708 -15.5252598 7.19069878 -9.5 2.0625 C-6.05112599 -0.78282106 -4.17517746 -1.29574473 0 0 Z " fill="#13BAF9" transform="translate(562,495)"/>
<path d="M0 0 C0.66 0.33 1.32 0.66 2 1 C2 17.57836614 -11.108825 33.65502604 -22 45 C-22.78890625 45.87978516 -22.78890625 45.87978516 -23.59375 46.77734375 C-25.71238577 48.90186462 -27.34264176 49.98047451 -30.3671875 50.0703125 C-32.62441312 49.83826127 -34.78725169 49.49663906 -37 49 C-33.57338651 45.49848786 -30.01791297 42.27319829 -26.3125 39.0625 C-16.63925191 30.33276427 -10.02906215 20.3358383 -5.24291992 8.24145508 C-3.9220941 4.91364384 -2.84485211 2.26738959 0 0 Z " fill="#044287" transform="translate(562,498)"/>
<path d="M0 0 C3.48490622 1.50186335 4.97030726 3.6037021 6.8671875 6.8046875 C7.4921875 10.3671875 7.4921875 10.3671875 6.8671875 13.8046875 C3.66239127 17.68417768 1.56085153 19.61295195 -3.4453125 20.1796875 C-7.1328125 19.8046875 -7.1328125 19.8046875 -10.0078125 17.4296875 C-12.43282623 14.4340823 -13.04727102 13.36070714 -13.6328125 9.5546875 C-13.10994359 5.63317067 -12.82558045 4.92401633 -10.1328125 2.3046875 C-6.69605492 -0.28331618 -4.20335744 -0.93226216 0 0 Z " fill="#94D6F6" transform="translate(539.1328125,342.1953125)"/>
<path d="M0 0 C18.73668784 0.05871269 33.97569628 8.59831163 47.1875 21.6875 C47.991875 22.533125 48.79625 23.37875 49.625 24.25 C49.295 24.91 48.965 25.57 48.625 26.25 C47.779375 25.486875 46.93375 24.72375 46.0625 23.9375 C42.80496332 21.2008582 39.58776872 19.75585211 35.625 18.25 C35.625 17.59 35.625 16.93 35.625 16.25 C34.965 16.25 34.305 16.25 33.625 16.25 C33.625 15.59 33.625 14.93 33.625 14.25 C29.17 13.26 29.17 13.26 24.625 12.25 C24.625 11.59 24.625 10.93 24.625 10.25 C23.70976563 10.11722656 22.79453125 9.98445313 21.8515625 9.84765625 C20.66304688 9.67105469 19.47453125 9.49445313 18.25 9.3125 C16.47496094 9.05146484 16.47496094 9.05146484 14.6640625 8.78515625 C11.625 8.25 11.625 8.25 9.625 7.25 C1.00425272 5.83933226 -6.84888587 6.58603256 -15.375 8.25 C-14.39633662 7.10373678 -13.41705413 5.95800212 -12.4375 4.8125 C-11.89222656 4.17441406 -11.34695313 3.53632813 -10.78515625 2.87890625 C-7.70589303 -0.67802662 -4.50384301 0.01438353 0 0 Z " fill="#41ACE2" transform="translate(490.375,414.75)"/>
<path d="M0 0 C3.60199656 2.52906142 4.76443405 4.23787487 6.0625 8.4375 C5.98541095 12.83157589 4.78058336 14.66329997 2 18 C-1.21694364 19.60847182 -4.52137222 19.61309149 -8 19 C-11.64345196 16.05423033 -13.79099354 13.88105815 -14.3125 9.1875 C-13.92835642 5.2692355 -12.70743683 3.78706733 -10 1 C-6.77121481 -0.6143926 -3.49096318 -0.5818272 0 0 Z " fill="#EAF4FA" transform="translate(499,463)"/>
<path d="M0 0 C1.093125 0.02964844 2.18625 0.05929687 3.3125 0.08984375 C10.2807388 0.50510217 16.48936549 2.55709176 23 5 C23 5.66 23 6.32 23 7 C23.66 7 24.32 7 25 7 C25 7.66 25 8.32 25 9 C25.969375 9.185625 26.93875 9.37125 27.9375 9.5625 C33.8239449 11.2733976 39.10771765 15.10086154 42.4609375 20.23828125 C43.40087753 22.1148282 44.21464564 24.05368702 45 26 C42.69 25.67 40.38 25.34 38 25 C37.69449219 23.93458984 37.69449219 23.93458984 37.3828125 22.84765625 C35.58839998 19.15238301 33.03412593 16.9421336 29.875 14.4375 C29.26406494 13.95297363 28.65312988 13.46844727 28.02368164 12.96923828 C21.25220801 7.94769604 14.18270984 6.37140388 6 5 C5.22068115 4.82637939 4.4413623 4.65275879 3.63842773 4.47387695 C-1.31890294 3.58351156 -6.35200037 3.81539343 -11.375 3.8125 C-13.04175781 3.79413086 -13.04175781 3.79413086 -14.7421875 3.77539062 C-20.55769476 3.76500579 -25.51908282 4.00191348 -31 6 C-31.33 5.34 -31.66 4.68 -32 4 C-31 2 -31 2 -29.19921875 1.3671875 C-19.52229681 -0.52906781 -9.81302513 -0.26998574 0 0 Z " fill="#2287CA" transform="translate(501,424)"/>
<path d="M0 0 C3.99104912 0.30178065 6.19416343 1.73413808 9 4.625 C10.42662219 7.47824437 10.31033868 9.45954549 10 12.625 C8.20006226 15.32490662 6.916227 17.1668865 4 18.625 C0.98834116 18.97060019 -1.094098 19.20840289 -4 18.625 C-7.25932425 15.77309128 -8.73945496 13.87561619 -9.625 9.625 C-8.49306791 4.19172595 -5.76284951 0.30560566 0 0 Z " fill="#3CB9F5" transform="translate(571,342.375)"/>
<path d="M0 0 C-1 2 -1 2 -3.44921875 2.82421875 C-4.51785156 3.10910156 -5.58648437 3.39398438 -6.6875 3.6875 C-18.70813211 7.25942029 -28.55052768 12.84476233 -38 21 C-39.70245651 22.38226973 -41.41081641 23.75730033 -43.125 25.125 C-44.34896484 26.10919922 -44.34896484 26.10919922 -45.59765625 27.11328125 C-48.50159131 29.39393269 -51.48233664 31.55399494 -54.50390625 33.67578125 C-56.28935565 35.03341274 -56.28935565 35.03341274 -57 38 C-57.66 37.67 -58.32 37.34 -59 37 C-60.7015625 37.0309375 -60.7015625 37.0309375 -62.4375 37.0625 C-66 37 -66 37 -69 35 C-67.02 35 -65.04 35 -63 35 C-63 34.01 -63 33.02 -63 32 C-62.01 32.33 -61.02 32.66 -60 33 C-54.5155284 31.29716003 -51.81097358 28.91920377 -49 24 C-46.46869264 21.81252362 -43.73347237 19.92518753 -41 18 C-39.6416116 17.00574233 -38.28734864 16.00582107 -36.9375 15 C-36.27878906 14.51015625 -35.62007813 14.0203125 -34.94140625 13.515625 C-33.00416753 12.00325353 -31.19626031 10.39914121 -29.375 8.75 C-26.39800176 6.15604668 -23.82623912 5.09321118 -20 4 C-18.65661194 3.33236046 -17.32372659 2.64332006 -16 1.9375 C-10.45148559 -0.88949974 -6.11299074 -1.30992659 0 0 Z " fill="#40B3EA" transform="translate(475,421)"/>
<path d="M0 0 C0.69738281 0.01353516 1.39476562 0.02707031 2.11328125 0.04101562 C3.82585541 0.0762055 5.53802941 0.13000845 7.25 0.1875 C6.4921875 6.8203125 6.4921875 6.8203125 4.3125 10.125 C0.51164926 12.68475662 -1.96359241 12.710739 -6.4453125 12.65625 C-9.17712973 12.10062616 -10.10723157 11.41284765 -11.75 9.1875 C-12.1875 6.1875 -12.1875 6.1875 -11.75 3.1875 C-8.37776787 -0.47500021 -4.65389721 -0.17155198 0 0 Z " fill="#DAF1FB" transform="translate(764.75,509.8125)"/>
<path d="M0 0 C-0.48273009 5.14912095 -3.33588085 10.33588085 -7 14 C-12.0781575 14.58336649 -15.96438269 14.52689302 -20.5625 12.1875 C-23 10 -23 10 -24 7 C-20.06437237 6.11800435 -16.20857125 5.72181817 -12.1875 5.4375 C-10.44533203 5.31181641 -10.44533203 5.31181641 -8.66796875 5.18359375 C-7.34732422 5.09271484 -7.34732422 5.09271484 -6 5 C-6 4.34 -6 3.68 -6 3 C-2.53846154 0 -2.53846154 0 0 0 Z " fill="#9EE5FB" transform="translate(550,506)"/>
<path d="M0 0 C2.4375 1.5625 2.4375 1.5625 4 4 C3.9375 7.625 3.9375 7.625 3 11 C-0.49124017 13.32749345 -1.89222251 13.50299316 -6 13 C-8.7912125 11.01677007 -9.82597224 9.87013879 -10.5 6.5 C-9.33827182 0.69135908 -5.5534724 -0.92557873 0 0 Z " fill="#EEF5FA" transform="translate(464,462)"/>
<path d="M0 0 C0.66 0.99 1.32 1.98 2 3 C-12.90050195 20.03326239 -12.90050195 20.03326239 -20 24 C-23.37355844 24.14412354 -24.87728281 23.4729798 -28 22 C-27 19 -27 19 -24.8203125 17.90234375 C-23.93085937 17.58394531 -23.04140625 17.26554688 -22.125 16.9375 C-19.04063509 15.81795647 -16.75606371 14.83737581 -14 13 C-12.989375 12.71125 -11.97875 12.4225 -10.9375 12.125 C-7.43113507 10.78213684 -7.50886217 10.22745036 -6 7 C-4.99564028 5.71983165 -3.95309739 4.46871878 -2.875 3.25 C-2.33617187 2.63640625 -1.79734375 2.0228125 -1.2421875 1.390625 C-0.83226562 0.93171875 -0.42234375 0.4728125 0 0 Z " fill="#1CB1F4" transform="translate(545,523)"/>
<path d="M0 0 C-0.61452514 6.51396648 -0.61452514 6.51396648 -2.4375 8.8125 C-2.953125 9.204375 -3.46875 9.59625 -4 10 C-4.66 10.66 -5.32 11.32 -6 12 C-6 11.34 -6 10.68 -6 10 C-6.61875 10.495 -7.2375 10.99 -7.875 11.5 C-10 13 -10 13 -12 13 C-12 13.66 -12 14.32 -12 15 C-14.12254855 15.38863565 -16.24816828 15.76053209 -18.375 16.125 C-20.15003906 16.43824219 -20.15003906 16.43824219 -21.9609375 16.7578125 C-22.96382812 16.83773437 -23.96671875 16.91765625 -25 17 C-25.66 16.34 -26.32 15.68 -27 15 C-25.741875 14.67 -24.48375 14.34 -23.1875 14 C-15.89389416 11.59184262 -10.12672135 6.60710725 -4.296875 1.74609375 C-2 0 -2 0 0 0 Z " fill="#46CEF4" transform="translate(556,496)"/>
<path d="M0 0 C2.77389443 2.02419323 3.85519403 3.15185077 4.4375 6.5625 C4 9 4 9 2.875 10.8125 C0.12844028 12.55198782 -1.81846974 12.39769128 -5 12 C-6.875 10.875 -6.875 10.875 -8 9 C-8.39769128 5.81846974 -8.55198782 3.87155972 -6.8125 1.125 C-4.30201593 -0.43323149 -2.90697947 -0.49631357 0 0 Z " fill="#69D9F8" transform="translate(529,471)"/>
<path d="M0 0 C0.99 0.66 1.98 1.32 3 2 C3.3125 5.5 3.3125 5.5 3 9 C1 11 1 11 -2.4375 11.3125 C-6 11 -6 11 -7.9375 9.8125 C-9.38718434 7.33950907 -9.42317323 5.82115488 -9 3 C-6.72678821 -0.66239677 -4.03980218 -0.42081273 0 0 Z " fill="#95DEF8" transform="translate(501,346)"/>
<path d="M0 0 C1.8125 1.0625 1.8125 1.0625 3 3 C3.375 6.5625 3.375 6.5625 3 10 C0 12 0 12 -3.625 11.75 C-4.73875 11.5025 -5.8525 11.255 -7 11 C-8.39935013 8.20129973 -8.25265405 6.09501208 -8 3 C-5.90534242 -0.30735407 -3.75951639 -0.56392746 0 0 Z " fill="#EFF5FB" transform="translate(462,346)"/>
<path d="M0 0 C1.9375 1.6875 1.9375 1.6875 3 4 C2.75925978 7.37036311 2.41201979 8.58798021 0 11 C-3.5 11.25 -3.5 11.25 -7 11 C-9 9 -9 9 -9.3125 6.0625 C-9 3 -9 3 -7.875 1.125 C-5.08893958 -0.54663625 -3.18011138 -0.46376624 0 0 Z " fill="#B3E5F8" transform="translate(478,434)"/>
<path d="M0 0 C1.32 6.36 1.32 6.36 0 9 C-3.11708365 10.55854182 -5.6858308 9.68784644 -9 9 C-11.28 1.68 -11.28 1.68 -10.125 -1.125 C-6.54080215 -2.60084617 -3.62104894 -1.1278677 0 0 Z " fill="#2591DB" transform="translate(454,445)"/>
<path d="M0 0 C10.73108435 0.99465664 17.7938691 3.89907191 26 11 C26.99386719 11.80824219 26.99386719 11.80824219 28.0078125 12.6328125 C29.3579616 13.73177107 30.68327348 14.8612095 32 16 C31.01 16.495 31.01 16.495 30 17 C26.00558547 15.07676337 23.61827064 13.85012213 21 10.25 C19.10506611 7.59025732 19.10506611 7.59025732 15.4375 7.75 C13.7359375 7.87375 13.7359375 7.87375 12 8 C11.01 7.67 10.02 7.34 9 7 C7.60560336 6.93334624 6.20830125 6.91461801 4.8125 6.9375 C3.554375 6.958125 2.29625 6.97875 1 7 C0.34 5.02 -0.32 3.04 -1 1 C-0.67 0.67 -0.34 0.34 0 0 Z " fill="#136AB1" transform="translate(506,428)"/>
<path d="M0 0 C1.875 0.8125 1.875 0.8125 3.875 2.8125 C3.6875 6.3125 3.6875 6.3125 2.875 9.8125 C-0.125 11.8125 -0.125 11.8125 -2.6875 11.5625 C-5.125 10.8125 -5.125 10.8125 -7.125 8.8125 C-6.9768937 5.332002 -6.72180734 3.45046646 -4.3125 0.875 C-2.125 -0.1875 -2.125 -0.1875 0 0 Z " fill="#8DE2FB" transform="translate(468.125,509.1875)"/>
<path d="M0 0 C2.5625 0.3125 2.5625 0.3125 4.4375 1.5 C5.5625 3.3125 5.5625 3.3125 5.375 5.875 C4.5625 8.3125 4.5625 8.3125 2.5625 10.3125 C-0.30762296 10.68046448 -1.84524618 10.68759409 -4.3125 9.125 C-5.4375 7.3125 -5.4375 7.3125 -5.25 4.75 C-4.18108204 1.54324612 -3.41484064 0.43780008 0 0 Z " fill="#43D1F4" transform="translate(508.4375,491.6875)"/>
<path d="M0 0 C-1 2 -1 2 -3.66015625 3 C-4.78292969 3.33 -5.90570313 3.66 -7.0625 4 C-8.24457031 4.350625 -9.42664063 4.70125 -10.64453125 5.0625 C-13.17491675 5.76947616 -15.68974314 6.4183595 -18.25 7 C-22.75371031 8.20098941 -26.80279664 9.99855581 -31 12 C-29.63016497 8.83884224 -29.0109362 8.0072908 -26 6 C-25.113125 5.71125 -24.22625 5.4225 -23.3125 5.125 C-20.64641699 4.21953785 -18.46519976 3.24316029 -16 1.9375 C-10.45148559 -0.88949974 -6.11299074 -1.30992659 0 0 Z " fill="#4ABCED" transform="translate(475,421)"/>
<path d="M0 0 C0.8971875 0.309375 0.8971875 0.309375 1.8125 0.625 C0.87916423 3.16826447 -0.05901608 5.70956588 -1 8.25 C-1.26103516 8.96285156 -1.52207031 9.67570312 -1.79101562 10.41015625 C-3.35714781 14.62517866 -5.09231824 18.63597526 -7.1875 22.625 C-7.5175 22.625 -7.8475 22.625 -8.1875 22.625 C-7.15407224 6.55247875 -7.15407224 6.55247875 -5.1875 1.625 C-2.1875 -0.375 -2.1875 -0.375 0 0 Z " fill="#18AEF4" transform="translate(560.1875,494.375)"/>
<path d="M0 0 C0.66 0 1.32 0 2 0 C2.33 1.65 2.66 3.3 3 5 C4.32 4.67 5.64 4.34 7 4 C7.64715133 6.0829243 8.29267166 8.16635539 8.9375 10.25 C9.29714844 11.41015625 9.65679688 12.5703125 10.02734375 13.765625 C10.34832031 14.83296875 10.66929687 15.9003125 11 17 C11.20625 17.680625 11.4125 18.36125 11.625 19.0625 C12.12559354 21.64889996 12.09382785 24.11846079 12.0625 26.75 C12.05347656 27.73484375 12.04445313 28.7196875 12.03515625 29.734375 C12.02355469 30.48203125 12.01195312 31.2296875 12 32 C9.67217558 29.67217558 9.62780844 28.7957716 9.125 25.625 C8.1762019 20.37600405 6.57835219 15.49197556 4.8046875 10.46875 C4 8 4 8 4 6 C3.34 6 2.68 6 2 6 C1.34 4.02 0.68 2.04 0 0 Z " fill="#84C6E3" transform="translate(544,446)"/>
<path d="M0 0 C5.27749285 0.53851968 9.25645564 1.77343836 14 4 C14 4.99 14 5.98 14 7 C10.59659693 9.09440189 7.95562822 9.25797575 4 9 C2 8 2 8 1.3671875 6.15234375 C1.20476562 5.42144531 1.04234375 4.69054687 0.875 3.9375 C0.70742188 3.20402344 0.53984375 2.47054688 0.3671875 1.71484375 C0.24601562 1.14894531 0.12484375 0.58304687 0 0 Z " fill="#CBF7FD" transform="translate(405,502)"/>
<path d="M0 0 C4.92636782 0.95668304 8.42079519 3.56014948 12 7 C13.69245573 9.61860511 14.80007026 12.10016979 16 15 C13.69 14.67 11.38 14.34 9 14 C8.814375 13.29875 8.62875 12.5975 8.4375 11.875 C6.69273612 8.38547224 4.53395424 6.75012871 1.4609375 4.4296875 C0.97882812 3.95789063 0.49671875 3.48609375 0 3 C0 2.01 0 1.02 0 0 Z " fill="#2E97D0" transform="translate(530,435)"/>
<path d="M0 0 C0.66 0.99 1.32 1.98 2 3 C-3.88076669 6.92051113 -11.14894154 7.70422637 -18 9 C-17.67 8.01 -17.34 7.02 -17 6 C-15.35 5.67 -13.7 5.34 -12 5 C-12 4.34 -12 3.68 -12 3 C-10.5682384 2.30062798 -9.12932968 1.61587282 -7.6875 0.9375 C-6.88699219 0.55464844 -6.08648437 0.17179687 -5.26171875 -0.22265625 C-3 -1 -3 -1 0 0 Z " fill="#31BDFC" transform="translate(432,504)"/>
<path d="M0 0 C1.00073547 0.00030212 2.00147095 0.00060425 3.03253174 0.00091553 C4.10557556 0.02156067 5.17861938 0.04220581 6.28417969 0.06347656 C7.94039337 0.07196625 7.94039337 0.07196625 9.63006592 0.08062744 C13.15583695 0.10301388 16.68059093 0.1532166 20.20605469 0.20410156 C22.59666501 0.22416353 24.98729126 0.24241483 27.37792969 0.25878906 C33.23765156 0.30288613 39.09678047 0.36982158 44.95605469 0.45410156 C44.95605469 0.78410156 44.95605469 1.11410156 44.95605469 1.45410156 C28.78605469 1.45410156 12.61605469 1.45410156 -4.04394531 1.45410156 C-4.70394531 2.77410156 -5.36394531 4.09410156 -6.04394531 5.45410156 C-6.70394531 5.45410156 -7.36394531 5.45410156 -8.04394531 5.45410156 C-8.04394531 7.10410156 -8.04394531 8.75410156 -8.04394531 10.45410156 C-8.37394531 10.45410156 -8.70394531 10.45410156 -9.04394531 10.45410156 C-9.5325854 5.07906064 -9.5325854 5.07906064 -7.34356689 2.27935791 C-4.61797764 0.11600237 -3.43377038 -0.03468455 0 0 Z " fill="#8AC7EA" transform="translate(384.0439453125,343.5458984375)"/>
<path d="M0 0 C0.66 0.33 1.32 0.66 2 1 C0.02 1.99 0.02 1.99 -2 3 C-1.34 2.01 -0.68 1.02 0 0 Z M-8 7 C-7.34 7.33 -6.68 7.66 -6 8 C-6.83144531 8.77923828 -6.83144531 8.77923828 -7.6796875 9.57421875 C-8.76636719 10.62029297 -8.76636719 10.62029297 -9.875 11.6875 C-10.59429687 12.37199219 -11.31359375 13.05648438 -12.0546875 13.76171875 C-14.08335887 16.09591291 -15.02992733 18.08467634 -16 21 C-17.32 20.34 -18.64 19.68 -20 19 C-20 18.01 -20 17.02 -20 16 C-18.13671875 14.24609375 -18.13671875 14.24609375 -15.6875 12.4375 C-14.88699219 11.83808594 -14.08648437 11.23867188 -13.26171875 10.62109375 C-11.53121202 9.38074782 -9.77152703 8.18101802 -8 7 Z " fill="#2792D7" transform="translate(439,441)"/>
<path d="M0 0 C0.66 1.32 1.32 2.64 2 4 C-3.48852579 9.78520286 -3.48852579 9.78520286 -8.375 10.203125 C-9.24125 10.21859375 -10.1075 10.2340625 -11 10.25 C-12.299375 10.28867187 -12.299375 10.28867187 -13.625 10.328125 C-16 10 -16 10 -17.76953125 8.68359375 C-19.53209739 6.27195563 -19.67526058 3.92265478 -20 1 C-18 3 -16 5 -14 7 C-8.02027108 7.67715159 -8.02027108 7.67715159 -3.0625 4.625 C-1.01857687 2.20460719 -1.01857687 2.20460719 0 0 Z " fill="#084780" transform="translate(581,353)"/>
<path d="M0 0 C-0.75023437 0.3403125 -1.50046875 0.680625 -2.2734375 1.03125 C-9.72635532 4.56059144 -15.73137938 8.68951001 -22 14 C-23.70180225 15.3416593 -25.40982033 16.67548528 -27.125 18 C-27.87007813 18.5775 -28.61515625 19.155 -29.3828125 19.75 C-29.91648437 20.1625 -30.45015625 20.575 -31 21 C-31.66 20.67 -32.32 20.34 -33 20 C-31.12812601 18.41284471 -29.2526762 16.83026649 -27.375 15.25 C-26.59189453 14.58484375 -26.59189453 14.58484375 -25.79296875 13.90625 C-23.17093007 11.70503234 -20.60192513 9.73968373 -17.7265625 7.859375 C-14.80863423 6.11909002 -14.80863423 6.11909002 -13 3 C-10.9765625 1.796875 -10.9765625 1.796875 -8.625 0.75 C-7.46871094 0.21632813 -7.46871094 0.21632813 -6.2890625 -0.328125 C-3.73704514 -1.07718129 -2.47221736 -0.88051577 0 0 Z " fill="#3BACE4" transform="translate(459,428)"/>
<path d="M0 0 C0.96679688 0.04382813 1.93359375 0.08765625 2.9296875 0.1328125 C7.31234826 0.35013452 11.45409855 0.68664937 15.75 1.625 C15.75 2.285 15.75 2.945 15.75 3.625 C9 3.75 9 3.75 6.75 2.625 C4.89879689 2.54006567 3.04453223 2.51780895 1.19140625 2.52734375 C-0.47051758 2.53217773 -0.47051758 2.53217773 -2.16601562 2.53710938 C-3.90915039 2.54967773 -3.90915039 2.54967773 -5.6875 2.5625 C-6.84572266 2.56701172 -8.00394531 2.57152344 -9.19726562 2.57617188 C-11.34693412 2.58491544 -13.4965959 2.59570302 -15.64624023 2.60913086 C-17.51413295 2.62051511 -19.38207259 2.625 -21.25 2.625 C-20.92 1.965 -20.59 1.305 -20.25 0.625 C-13.43736829 -0.51963245 -6.87670089 -0.37272092 0 0 Z " fill="#1B7DC4" transform="translate(495.25,425.375)"/>
<path d="M0 0 C0.33 0.66 0.66 1.32 1 2 C1.99 2.33 2.98 2.66 4 3 C3.52691406 3.54527344 3.05382812 4.09054687 2.56640625 4.65234375 C0.75358505 7.36931517 0.38827916 9.34577496 -0.0625 12.5625 C-0.5837214 16.22097781 -0.90645114 17.85967672 -3 21 C-3.38999191 13.40237976 -2.60758587 7.15533979 0 0 Z " fill="#3CBDF2" transform="translate(402,455)"/>
<path d="M0 0 C0.33 0 0.66 0 1 0 C1.48355428 5.48350551 -0.69298048 7.81257797 -4.04296875 11.90625 C-6.50072917 14.53571025 -8.87145852 16.24496454 -12 18 C-11.71125 17.443125 -11.4225 16.88625 -11.125 16.3125 C-9.93354207 14.00566814 -9.93354207 14.00566814 -9.1875 11.4375 C-8 9 -8 9 -5.5625 7.5625 C-2.2996938 5.57298403 -1.46162226 3.46173693 0 0 Z " fill="#57D6FB" transform="translate(548,511)"/>
<path d="M0 0 C-0.33 2.31 -0.66 4.62 -1 7 C-2.051875 7.12375 -3.10375 7.2475 -4.1875 7.375 C-7.45958771 7.91140782 -10.00536076 8.63880035 -13 10 C-3.28571429 0 -3.28571429 0 0 0 Z " fill="#3CCDF7" transform="translate(556,496)"/>
<path d="M0 0 C0 3.72047814 -0.97203752 4.62861872 -3.25 7.5 C-4.15492188 8.66015625 -4.15492188 8.66015625 -5.078125 9.84375 C-6.94511046 11.93841662 -8.58439352 13.56996096 -11 15 C-11.99 14.67 -12.98 14.34 -14 14 C-13.2575 13.278125 -12.515 12.55625 -11.75 11.8125 C-9.02460563 9.12944371 -9.02460563 9.12944371 -7 6.4375 C-4.895311 3.87241028 -2.64772004 1.98579003 0 0 Z " fill="#26C7FB" transform="translate(544,522)"/>
<path d="M0 0 C0.66 0 1.32 0 2 0 C2.66666667 1.33333333 3.33333333 2.66666667 4 4 C4.556875 4.99 4.556875 4.99 5.125 6 C6 8 6 8 6 12 C8.97 12.495 8.97 12.495 12 13 C12 13.33 12 13.66 12 14 C6.76560075 14.08723999 6.76560075 14.08723999 4 13 C1.00039563 8.92910835 0 5.00443003 0 0 Z " fill="#64DFF8" transform="translate(401,498)"/>
<path d="M0 0 C2.64 0.33 5.28 0.66 8 1 C7.62875 1.7425 7.2575 2.485 6.875 3.25 C5.70484137 5.94283647 5.70484137 5.94283647 6.875 8.3125 C7.431875 9.1478125 7.431875 9.1478125 8 10 C7.01 10 6.02 10 5 10 C3.35 6.7 1.7 3.4 0 0 Z " fill="#1EB6F8" transform="translate(405,511)"/>
<path d="M0 0 C3.58786447 1.65593745 6.83783588 3.62837691 10 6 C10 6.99 10 7.98 10 9 C10.99 9.33 11.98 9.66 13 10 C13.33 10.99 13.66 11.98 14 13 C11.625 12.8125 11.625 12.8125 9 12 C8.33333333 10.33333333 7.66666667 8.66666667 7 7 C5.23758414 5.28287988 3.38937752 3.76138465 1.4609375 2.234375 C0.97882812 1.82703125 0.49671875 1.4196875 0 1 C0 0.67 0 0.34 0 0 Z " fill="#2384C3" transform="translate(530,437)"/>
<path d="M0 0 C1.05767578 0.49113281 1.05767578 0.49113281 2.13671875 0.9921875 C5.23867167 2.08400722 7.54006053 2.20385396 10.8125 2.125 C11.78832031 2.10695313 12.76414062 2.08890625 13.76953125 2.0703125 C14.50558594 2.04710937 15.24164063 2.02390625 16 2 C16 2.33 16 2.66 16 3 C9.6221448 4.17293889 3.49678438 5.29530838 -3 5 C-2.01 4.34 -1.02 3.68 0 3 C0 2.01 0 1.02 0 0 Z " fill="#1C91EB" transform="translate(448,539)"/>
<path d="M0 0 C-0.33 1.65 -0.66 3.3 -1 5 C-1.33 4.34 -1.66 3.68 -2 3 C-2.61875 3.495 -3.2375 3.99 -3.875 4.5 C-6 6 -6 6 -8 6 C-8 6.66 -8 7.32 -8 8 C-8.66 7.67 -9.32 7.34 -10 7 C-9.63206382 4.33246269 -9.18001672 3.18001672 -7.25 1.25 C-4.62056017 -0.21079991 -2.9625559 -0.24687966 0 0 Z " fill="#58DEFC" transform="translate(552,503)"/>
<path d="M0 0 C0.928125 0.20625 1.85625 0.4125 2.8125 0.625 C1.8125 2.625 1.8125 2.625 -1.12890625 3.6953125 C-2.32386719 4.04335938 -3.51882813 4.39140625 -4.75 4.75 C-5.94753906 5.10320312 -7.14507812 5.45640625 -8.37890625 5.8203125 C-9.76916016 6.21863281 -9.76916016 6.21863281 -11.1875 6.625 C-11.1875 5.965 -11.1875 5.305 -11.1875 4.625 C-9.55685236 3.56728261 -7.88469127 2.57226954 -6.1875 1.625 C-3.1875 -0.375 -3.1875 -0.375 0 0 Z " fill="#41B0E6" transform="translate(472.1875,420.375)"/>
<path d="M0 0 C0.33 0 0.66 0 1 0 C1 5.94 1 11.88 1 18 C0.01 18.33 -0.98 18.66 -2 19 C-1.34 12.73 -0.68 6.46 0 0 Z " fill="#09447F" transform="translate(566,474)"/>
<path d="M0 0 C0.66 1.32 1.32 2.64 2 4 C-0.17220355 6.73277221 -1.85827965 8.72888915 -5.3359375 9.5546875 C-7.56274452 9.78650022 -9.76217118 9.94637012 -12 10 C-12 9.67 -12 9.34 -12 9 C-11.113125 8.773125 -10.22625 8.54625 -9.3125 8.3125 C-5.04565865 6.62186475 -2.07506196 4.15012391 0 0 Z " fill="#043D77" transform="translate(581,353)"/>
<path d="M0 0 C0.66 0.33 1.32 0.66 2 1 C0.58994275 2.15395711 -0.82833458 3.29787466 -2.25 4.4375 C-3.43335938 5.39462891 -3.43335938 5.39462891 -4.640625 6.37109375 C-6.86247492 7.90505305 -8.36743482 8.57130246 -11 9 C-11 8.01 -11 7.02 -11 6 C-9.21385682 4.96953278 -7.42089982 3.95086764 -5.625 2.9375 C-4.62726563 2.36902344 -3.62953125 1.80054688 -2.6015625 1.21484375 C-1.74304688 0.81394531 -0.88453125 0.41304688 0 0 Z " fill="#0B6DC1" transform="translate(421,481)"/>
<path d="M0 0 C0.66 0 1.32 0 2 0 C2.33 1.65 2.66 3.3 3 5 C4.32 4.67 5.64 4.34 7 4 C7.33 6.31 7.66 8.62 8 11 C7.01 10.67 6.02 10.34 5 10 C4.3125 7.9375 4.3125 7.9375 4 6 C3.34 6 2.68 6 2 6 C1.34 4.02 0.68 2.04 0 0 Z " fill="#9AD9F3" transform="translate(544,446)"/>
<path d="M0 0 C3.52238047 1.56367357 6.27123994 3.69495889 9.25 6.125 C10.14203125 6.84945313 11.0340625 7.57390625 11.953125 8.3203125 C12.62859375 8.87460937 13.3040625 9.42890625 14 10 C13.01 10.495 13.01 10.495 12 11 C6.11802971 8.33646628 3.43923024 5.4193931 0 0 Z " fill="#1A74B8" transform="translate(524,434)"/>
<path d="M0 0 C1.27230469 0.00902344 2.54460937 0.01804687 3.85546875 0.02734375 C5.31919922 0.04474609 5.31919922 0.04474609 6.8125 0.0625 C6.8125 0.3925 6.8125 0.7225 6.8125 1.0625 C6.14863281 1.08828125 5.48476563 1.1140625 4.80078125 1.140625 C-0.73191741 1.49601002 -4.15316075 1.89368278 -8.1875 6.0625 C-7.8575 4.7425 -7.5275 3.4225 -7.1875 2.0625 C-8.1775 1.7325 -9.1675 1.4025 -10.1875 1.0625 C-6.62704823 -0.12431726 -3.74941663 -0.03439832 0 0 Z " fill="#8FDDF6" transform="translate(446.1875,482.9375)"/>
<path d="M0 0 C0.66 0.33 1.32 0.66 2 1 C1.36191406 1.62648438 0.72382812 2.25296875 0.06640625 2.8984375 C-0.75988281 3.71570313 -1.58617187 4.53296875 -2.4375 5.375 C-3.26121094 6.18710937 -4.08492187 6.99921875 -4.93359375 7.8359375 C-7.03434672 9.82348515 -7.03434672 9.82348515 -8 12 C-8.66 11.67 -9.32 11.34 -10 11 C-7.17477391 6.32751069 -4.32239956 3.34003602 0 0 Z " fill="#1A4581" transform="translate(906,470)"/>
<path d="M0 0 C1.53166168 4.08443115 0.63081652 7.79455657 0 12 C-0.66 12 -1.32 12 -2 12 C-2.33 9.03 -2.66 6.06 -3 3 C-2.01 3 -1.02 3 0 3 C0 2.01 0 1.02 0 0 Z " fill="#CCE6F7" transform="translate(714,500)"/>
<path d="M0 0 C3 1 3 1 5 4 C4 5 4 5 1.5625 5.25 C0.716875 5.1675 -0.12875 5.085 -1 5 C-1.66 4.01 -2.32 3.02 -3 2 C-2.01 1.34 -1.02 0.68 0 0 Z " fill="#31C4FD" transform="translate(429,503)"/>
<path d="M0 0 C1.37478516 0.01740234 1.37478516 0.01740234 2.77734375 0.03515625 C3.69644531 0.04417969 4.61554687 0.05320312 5.5625 0.0625 C6.27277344 0.07410156 6.98304688 0.08570313 7.71484375 0.09765625 C4.43020716 2.28741398 1.507881 3.09572188 -2.28515625 4.09765625 C-2.61515625 3.10765625 -2.94515625 2.11765625 -3.28515625 1.09765625 C-2.28515625 0.09765625 -2.28515625 0.09765625 0 0 Z " fill="#7DE0FA" transform="translate(529.28515625,511.90234375)"/>
<path d="M0 0 C0.66 0.66 1.32 1.32 2 2 C-0.97 4.475 -0.97 4.475 -4 7 C-4.66 6.34 -5.32 5.68 -6 5 C-4.02 3.35 -2.04 1.7 0 0 Z " fill="#50BBEC" transform="translate(479,415)"/>
<path d="M0 0 C1.47968023 2.95936046 0.84835797 4.86760134 0 8 C-2.0625 9.375 -2.0625 9.375 -4 10 C-3.43454163 6.04179141 -2.19097652 3.3340947 0 0 Z " fill="#26C5FC" transform="translate(553,503)"/>
<path d="M0 0 C0.9075 0.391875 1.815 0.78375 2.75 1.1875 C2.75 1.5175 2.75 1.8475 2.75 2.1875 C-0.5625 3.3125 -0.5625 3.3125 -4.25 4.1875 C-5.24 3.5275 -6.23 2.8675 -7.25 2.1875 C-4.52596974 -0.53653026 -3.86366821 -0.96591705 0 0 Z " fill="#1FB6FC" transform="translate(428.25,506.8125)"/>
<path d="M0 0 C0.66 0.33 1.32 0.66 2 1 C1.01 2.98 0.02 4.96 -1 7 C-1.99 6.67 -2.98 6.34 -4 6 C-3.6875 4.125 -3.6875 4.125 -3 2 C-2.01 1.34 -1.02 0.68 0 0 Z " fill="#1F86D1" transform="translate(424,455)"/>
<path d="M0 0 C0 3.60573896 -0.81707462 4.41336566 -3 7.1875 C-3.556875 7.90292969 -4.11375 8.61835938 -4.6875 9.35546875 C-5.120625 9.89816406 -5.55375 10.44085938 -6 11 C-6.33 10.34 -6.66 9.68 -7 9 C-6.02180976 7.68677212 -5.0424189 6.37443848 -4.0625 5.0625 C-3.51722656 4.33160156 -2.97195313 3.60070312 -2.41015625 2.84765625 C-1 1 -1 1 0 0 Z " fill="#CFE6F6" transform="translate(394,411)"/>
<path d="M0 0 C2 3 2 3 1.75 5.125 C1 7 1 7 -1 8 C-1.66 5.69 -2.32 3.38 -3 1 C-2.01 1.33 -1.02 1.66 0 2 C0 1.34 0 0.68 0 0 Z " fill="#8DCCED" transform="translate(552,455)"/>
<path d="M0 0 C0.66 0.33 1.32 0.66 2 1 C0.02 2.98 -1.96 4.96 -4 7 C-4.66 6.67 -5.32 6.34 -6 6 C-4 4 -2 2 0 0 Z " fill="#297FC7" transform="translate(362,329)"/>
</svg>
